# xmcd CD database file
#
# Track frame offsets:
#	150
#	17393
#	33086
#	49068
#	64592
#	83654
#	104209
#	121585
#	136112
#	152632
#	163788
#	180310
#	192202
#	203604
#	219167
#	233778
#	249358
#	263709
#	279514
#	297598
#	310417
#
# Disc length: 4417 seconds
#
# Revision: 0
# Processed by: cddbd v1.5.2PL0 Copyright (c) Steve Scherf et al.
# Submitted via: CDex 1.51
#
DISCID=15113f15
DTITLE=Various Artist - CDXmas 1027
DYEAR=2009
DGENRE=Country
TTITLE0=Vince Vance and the Valiants - All I Want For Christmas Is You
TTITLE1=Vince Vance and the Valiants - Christmas Just Ain't Christmas Without You
TTITLE2=Clay Walker - All Wrapped Up In You 
TTITLE3=Kacey Jones - Christmas In Rehab 
TTITLE4=Kacey Jones - I'm Down To My Christmas Underwear 
TTITLE5=Jose Feliciano - Precious Child
TTITLE6=Jose Feliciano - On This Christmas Night
TTITLE7=Ricochet - My Christmas List 
TTITLE8=Joey and Rory - It's Christmas Time 
TTITLE9=The Song Trust - Box of Rocks
TTITLE10=The Song Trust - Bring Him Home Santa 
TTITLE11=The Geezinslaws - Lighten Up, It's Christmas
TTITLE12=The Geezinslaws - Randolf, the Brown Nosed Reindeer
TTITLE13=Johnny Lyon - A Soldier's Christmas Tree 
TTITLE14=The Love Pirate - Its Christmas Every Day With You
TTITLE15=Judy Akin - Christmas Needs Love To Be Christmas
TTITLE16=Tommy Joe Wilson - Overdrawn Over Christmas 
TTITLE17=Jeremy Crady - Sleigh Me Back To Texas 
TTITLE18=Jolina Carl - Santa Claus Will Bring You Home To Me
TTITLE19=Lizard Thom Case - What Christmas Is About 
TTITLE20=Leon Sieter - A Cold December Night 
EXTD=YEAR: 2009
EXTT0=
EXTT1=
EXTT2=
EXTT3=
EXTT4=
EXTT5=
EXTT6=
EXTT7=
EXTT8=
EXTT9=
EXTT10=
EXTT11=
EXTT12=
EXTT13=
EXTT14=
EXTT15=
EXTT16=
EXTT17=
EXTT18=
EXTT19=
EXTT20=
PLAYORDER=
